#N canvas 540 469 734 339 12;
#X obj 16 13 cnv 15 650 40 empty empty py/pyext 10 22 0 24 -260818
-1 0;
#X text 235 16 Python script objects \, (C)2003-2005 Thomas Grill;
#X text 235 32 http://grrrr.org/ext;
#X symbolatom 21 139 10 0 0 0 - #0-t -;
#X text 23 119 enter some text;
#X text 21 73 Py can act on Python objects in a object-oriented manner
;
#X obj 25 252 pym 2 *;
#X obj 213 169 t b f;
#X text 105 251 repeat text;
#X text 215 117 multiply it!;
#X symbolatom 25 283 80 0 0 0 - - -;
#X obj 214 139 nbx 5 14 1 100 0 1 empty empty empty 0 -6 0 10 -262131
-1 -1 34 256;
#N canvas 0 0 458 308 init 0;
#X obj 61 116 s \$0-t;
#X obj 64 44 loadbang;
#X obj 64 81 symbol a;
#X connect 1 0 2 0;
#X connect 2 0 0 0;
#X restore 606 127 pd init;
#X connect 3 0 6 1;
#X connect 6 0 10 0;
#X connect 7 0 6 0;
#X connect 7 1 6 2;
#X connect 11 0 7 0;
