#N canvas 343 246 466 316 12;
#X msg 125 52 reload mi ma;
#X floatatom 48 173 5 0 0;
#X floatatom 181 174 5 0 0;
#X obj 181 198 s mi;
#X floatatom 49 265 5 0 0;
#X floatatom 181 266 5 0 0;
#X obj 181 239 r ma;
#X obj 48 197 s he;
#X obj 49 238 r hu;
#X text 233 51 reload with different args;
#X msg 20 17 help;
#X msg 19 49 doc;
#X msg 58 49 doc+;
#X obj 49 100 pyext sendrecv ex1 he hu;
#X text 28 151 scroll here;
#X text 176 152 or here;
#X connect 0 0 13 0;
#X connect 1 0 7 0;
#X connect 2 0 3 0;
#X connect 6 0 5 0;
#X connect 8 0 4 0;
#X connect 10 0 13 0;
#X connect 11 0 13 0;
#X connect 12 0 13 0;
