#N canvas 156 192 650 389 12;
#X obj 53 123 bng 15 250 50 0 empty empty empty 0 -6 0 8 -262144 -1
-1;
#X floatatom 52 155 5 0 0;
#X text 388 337 watch the console output!;
#X msg 52 186 2 3 4;
#X msg 277 131 ho;
#X msg 233 155 lets;
#X msg 283 190 go;
#X msg 212 214 !!!;
#X msg 205 113 hey;
#X obj 183 301 pyext simple ex1;
#X msg 434 114 onearg 123;
#X msg 456 167 threeargs 9 8 7;
#X msg 463 196 varargs 8 4 2 1;
#X msg 447 140 twoargs 41 15;
#X msg 453 239 twoargs 1 2 3;
#X msg 71 299 help;
#X text 16 15 py/pyext - Python script objects \, (C)2002 Thomas Grill
;
#X text 15 57 This demonstrates message handling. See the simple.py
file.;
#X text 232 322 file class;
#X msg 70 324 doc;
#X msg 106 325 doc+;
#X connect 0 0 9 1;
#X connect 1 0 9 1;
#X connect 3 0 9 1;
#X connect 4 0 9 2;
#X connect 5 0 9 2;
#X connect 6 0 9 2;
#X connect 7 0 9 2;
#X connect 8 0 9 2;
#X connect 10 0 9 3;
#X connect 11 0 9 3;
#X connect 12 0 9 3;
#X connect 13 0 9 3;
#X connect 14 0 9 3;
#X connect 15 0 9 0;
#X connect 19 0 9 0;
#X connect 20 0 9 0;
