#N canvas 297 17 670 521 12;
#X obj 26 208 print;
#X obj 332 181 print;
#X msg 486 79 freakhole;
#X msg 135 79 list H e l l o;
#X msg 153 105 Hello friend;
#X obj 38 433 print;
#X obj 39 397 py scr2 addall;
#X msg 98 340 0 1 2 3 4;
#X msg 193 340 5 67 3;
#X obj 337 386 print;
#X obj 313 295 bng 15 250 50 0 empty empty empty 20 8 0 8 -262144 -1
-1;
#X obj 502 385 print;
#X obj 501 316 bng 15 250 50 0 empty empty empty 20 8 0 8 -262144 -1
-1;
#X msg 175 134 1 3;
#X msg 332 85 help;
#X msg 347 257 set ret1;
#X msg 366 281 set ret2;
#X text 421 256 functions can be set;
#X msg 408 50 somewhere_past_mars;
#X text 139 31 reload with new arguments;
#X obj 26 171 py scr1 strcat;
#X obj 333 134 py scr1 strlen 5 6 7;
#X text 406 156 arguments not recognized;
#X obj 503 349 py scr2 ret3;
#X obj 337 350 py scr2;
#X msg 27 34 reload 1 2 3;
#X obj 26 287 tgl 15 0 empty empty empty 0 -6 0 8 -262144 -1 -1 0 1
;
#X msg 25 307 detach \$1;
#X text 405 176 (the other py object (left) loaded first);
#X connect 2 0 21 1;
#X connect 3 0 20 1;
#X connect 4 0 20 1;
#X connect 6 0 5 0;
#X connect 7 0 6 1;
#X connect 8 0 6 1;
#X connect 10 0 24 0;
#X connect 12 0 23 0;
#X connect 13 0 20 1;
#X connect 14 0 21 0;
#X connect 15 0 24 0;
#X connect 16 0 24 0;
#X connect 18 0 21 1;
#X connect 20 0 0 0;
#X connect 21 0 1 0;
#X connect 23 0 11 0;
#X connect 24 0 9 0;
#X connect 25 0 20 0;
#X connect 26 0 27 0;
#X connect 27 0 6 0;
