#N canvas 440 61 590 402 12;
#X msg 38 265 help;
#X msg 37 290 doc;
#X msg 73 291 doc+;
#X floatatom 145 323 5 0 0 0 - - -;
#X text 14 44 This demonstrates threading. See the threads.py file.
;
#X obj 140 216 tgl 15 0 empty empty empty 0 -6 0 8 -262144 -1 -1 1
1;
#X msg 140 236 detach \$1;
#X floatatom 253 324 5 0 0 0 - - -;
#X obj 275 123 bng 15 250 50 0 empty empty empty 0 -6 0 8 -258699 -1
-1;
#X obj 146 127 bng 15 250 50 0 empty empty empty 0 -6 0 8 -258699 -1
-1;
#X obj 146 154 t b b b;
#X obj 275 150 t b b b;
#X obj 289 179 1;
#X obj 160 181 0;
#X text 87 87 without threads;
#X text 251 85 with threads;
#X text 252 102 non-blocking;
#X text 178 345 watch that!;
#X msg 414 127 stop;
#X text 384 106 you can even stop it;
#X obj 145 279 pyext threads ex1;
#X text 93 101 - blocking!! -;
#X text 16 14 py/pyext - Python script objects \, (C)2002 \, 2003 Thomas
Grill;
#X connect 0 0 20 0;
#X connect 1 0 20 0;
#X connect 2 0 20 0;
#X connect 5 0 6 0;
#X connect 6 0 20 0;
#X connect 8 0 11 0;
#X connect 9 0 10 0;
#X connect 10 0 20 1;
#X connect 10 1 20 2;
#X connect 10 2 13 0;
#X connect 11 0 20 1;
#X connect 11 1 20 2;
#X connect 11 2 12 0;
#X connect 12 0 5 0;
#X connect 13 0 5 0;
#X connect 18 0 20 0;
#X connect 20 0 3 0;
#X connect 20 1 7 0;
